<svg width="31" height="30" viewBox="0 0 31 30" fill="none" xmlns="http://www.w3.org/2000/svg">
<g clip-path="url(#clip0_6290_63090)">
<g filter="url(#filter0_d_6290_63090)">
<path d="M0.146484 14.6247C0.146484 6.54771 6.69446 0 14.7715 0C22.8485 0 29.3965 6.54771 29.3965 14.6247C29.3965 22.7017 22.8485 29.2494 14.7715 29.2494C6.69446 29.2494 0.146484 22.7017 0.146484 14.6247Z" fill="#2C2A29"/>
</g>
<path fill-rule="evenodd" clip-rule="evenodd" d="M9.7658 12.9905C9.84753 13.308 10.1664 13.4717 10.4903 13.3641C13.1458 12.5469 15.8079 11.9877 18.5547 11.5809C18.8695 11.5388 19.0417 11.2132 18.926 10.8867C18.6821 10.1986 18.5588 9.85549 18.3096 9.17139C18.2037 8.88094 17.9176 8.69041 17.6246 8.72221C14.9402 9.05319 12.3468 9.54199 9.74767 10.2949C9.40924 10.4012 9.2014 10.7802 9.28674 11.1164C9.47668 11.865 9.57249 12.2397 9.7658 12.9905Z" fill="white"/>
<path fill-rule="evenodd" clip-rule="evenodd" d="M20.5266 13.3676C20.4236 13.0601 20.1438 12.8546 19.8672 12.8908C15.6648 13.4266 11.5728 14.4655 7.69238 16.1825C7.40934 16.3164 7.23957 16.6724 7.2989 16.9862C7.451 17.7887 7.52778 18.1903 7.68304 18.9943C7.74935 19.3381 8.07045 19.4964 8.38715 19.342C12.3287 17.5367 16.4939 16.3873 20.7668 15.702C21.0384 15.6575 21.1769 15.3462 21.0729 15.0256C20.8577 14.3608 20.7484 14.0292 20.5266 13.3676Z" fill="white"/>
<path fill-rule="evenodd" clip-rule="evenodd" d="M20.5155 17.8483C20.4113 17.52 20.1069 17.3059 19.8177 17.3654C17.1937 17.9347 14.6289 18.6208 12.0882 19.4939C11.766 19.6122 11.5845 19.9521 11.6692 20.2648C11.8712 21.0099 11.9728 21.383 12.1773 22.1304C12.2733 22.4814 12.6674 22.6611 13.0303 22.5228C15.5701 21.6132 18.1355 20.8189 20.757 20.1822C21.0084 20.1211 21.1321 19.8262 21.0387 19.522C20.8323 18.8511 20.7277 18.5163 20.5155 17.8483Z" fill="white"/>
<mask id="mask0_6290_63090" style="mask-type:alpha" maskUnits="userSpaceOnUse" x="0" y="0" width="30" height="30">
<path d="M0.146484 14.6247C0.146484 6.54771 6.69447 0 14.7715 0C22.8485 0 29.3965 6.54771 29.3965 14.6247C29.3965 22.7017 22.8485 29.2494 14.7715 29.2494C6.69447 29.2494 0.146484 22.7017 0.146484 14.6247Z" fill="#2C2A29"/>
</mask>
<g mask="url(#mask0_6290_63090)">
<path fill-rule="evenodd" clip-rule="evenodd" d="M8.00756 -10.265C7.89058 -10.2753 7.76952 -10.2579 7.65373 -10.2093C7.27399 -10.0494 7.09573 -9.61203 7.25558 -9.23227C7.76533 -8.02116 8.39467 -6.79128 9.12608 -5.57677C9.842 -4.39088 10.637 -3.26083 11.4894 -2.21734C12.3727 -1.13552 13.328 -0.134775 14.3287 0.757006C15.3714 1.68604 16.4815 2.51495 17.6282 3.22069C17.9792 3.43669 18.4386 3.32728 18.6546 2.97642C18.8706 2.62555 18.7612 2.16603 18.4103 1.95009C17.338 1.29013 16.2987 0.513975 15.3213 -0.356909C14.3792 -1.19641 13.4788 -2.13988 12.645 -3.16106C11.837 -4.15022 11.083 -5.22215 10.4038 -6.34718C9.70958 -7.49993 9.11289 -8.6656 8.63075 -9.81108C8.51962 -10.0751 8.27433 -10.2417 8.00756 -10.265Z" fill="#00C389"/>
<path fill-rule="evenodd" clip-rule="evenodd" d="M4.87066 -11.935C4.69124 -11.9764 4.49698 -11.9586 4.31881 -11.8711C3.90774 -11.6691 3.73828 -11.1721 3.94021 -10.761C4.25478 -10.1209 4.58715 -9.50059 4.84157 -9.03167L4.84609 -9.02337C5.19807 -8.39187 5.49917 -7.86282 5.82481 -7.33335C6.49146 -6.23234 7.22633 -5.13939 8.00612 -4.0896C9.58389 -1.9587 11.3627 -0.00876253 13.2923 1.70496C15.2716 3.46444 17.4348 4.99061 19.7213 6.24086C21.982 7.4794 24.4295 8.48266 26.9952 9.22249C27.4357 9.34914 27.8949 9.09552 28.0219 8.65541C28.1488 8.21534 27.8949 7.75569 27.4548 7.62881C25.0061 6.92276 22.6722 5.96625 20.5177 4.78591C18.3403 3.59531 16.2802 2.14168 14.3939 0.46509C12.5497 -1.17286 10.8488 -3.03764 9.33839 -5.07759C8.58886 -6.08667 7.88337 -7.1359 7.2407 -8.19727C6.92823 -8.70537 6.63779 -9.21574 6.2972 -9.82673C6.05054 -10.2815 5.72943 -10.8809 5.42895 -11.4925C5.31445 -11.7254 5.10528 -11.8808 4.87066 -11.935Z" fill="#FDDA24"/>
<path fill-rule="evenodd" clip-rule="evenodd" d="M22.6915 4.5778C22.295 4.48627 21.871 4.66681 21.6705 5.04298C21.4308 5.49254 21.6009 6.05132 22.0505 6.29102C26.4535 8.63866 31.7165 9.98405 37.693 10.2898C38.2018 10.3158 38.6354 9.92449 38.6614 9.41568C38.6874 8.90687 38.2959 8.47348 37.7872 8.44724C32.0833 8.15547 27.0808 6.88221 22.9185 4.66301C22.8451 4.62388 22.7688 4.59565 22.6915 4.5778Z" fill="#9063CD"/>
</g>
</g>
<defs>
<filter id="filter0_d_6290_63090" x="-3.67867" y="-3.34701" width="36.9003" height="36.9003" filterUnits="userSpaceOnUse" color-interpolation-filters="sRGB">
<feFlood flood-opacity="0" result="BackgroundImageFix"/>
<feColorMatrix in="SourceAlpha" type="matrix" values="0 0 0 0 0 0 0 0 0 0 0 0 0 0 0 0 0 0 127 0" result="hardAlpha"/>
<feOffset dy="0.478144"/>
<feGaussianBlur stdDeviation="1.91258"/>
<feColorMatrix type="matrix" values="0 0 0 0 0 0 0 0 0 0 0 0 0 0 0 0 0 0 0.1 0"/>
<feBlend mode="normal" in2="BackgroundImageFix" result="effect1_dropShadow_6290_63090"/>
<feBlend mode="normal" in="SourceGraphic" in2="effect1_dropShadow_6290_63090" result="shape"/>
</filter>
<clipPath id="clip0_6290_63090">
<rect width="30" height="30" fill="white" transform="translate(0.146484)"/>
</clipPath>
</defs>
</svg>
