<svg width="31" height="30" viewBox="0 0 31 30" fill="none" xmlns="http://www.w3.org/2000/svg">
<circle cx="15" cy="15" r="15" fill="#ED1C27"/>
<path fill-rule="evenodd" clip-rule="evenodd" d="M7.46808 13.1477C7.5118 13.5421 7.47901 15.1637 5.98158 17.3988C4.42951 19.8639 6.88878 23.9726 11.8401 22.9317C12.9222 23.3262 14.1026 23.381 14.8568 23.37C15.6219 23.381 16.8024 23.3262 17.8954 22.9317C22.8576 23.9726 25.2951 19.853 23.743 17.3878C22.2456 15.1527 22.2128 13.5311 22.2565 13.1367L7.46808 13.1477Z" fill="#ED1C27"/>
<path fill-rule="evenodd" clip-rule="evenodd" d="M14.8566 23.3496C10.0146 23.2291 9.12924 20.994 10.4736 20.5229C11.2497 20.249 12.2771 19.7997 12.2771 19.7997C11.7634 17.2798 12.6159 14.0586 14.8785 14.0586C17.141 14.0586 17.9608 17.3784 17.447 19.8436C17.447 19.8436 18.4745 20.2161 19.2505 20.5229C20.4965 21.0159 19.6986 23.2181 14.8566 23.3496Z" fill="#0081C3"/>
<path fill-rule="evenodd" clip-rule="evenodd" d="M13.0311 21.5886C11.7413 17.984 12.878 14.5984 14.8564 14.6094C16.7473 14.6204 18.0261 17.8963 16.6926 21.5777C16.6926 21.5777 16.0587 21.4352 14.7908 21.4352C13.8399 21.4352 13.0311 21.5886 13.0311 21.5886Z" fill="#FFE01B"/>
<path fill-rule="evenodd" clip-rule="evenodd" d="M14.8558 23.3832C16.8123 23.3832 18.3425 22.9668 18.3425 22.3752C18.3425 21.7945 16.8123 21.3672 14.8558 21.3672C12.8994 21.3672 11.3691 21.7835 11.3691 22.3752C11.3691 22.9668 12.8994 23.3832 14.8558 23.3832Z" fill="#F8991D"/>
<path fill-rule="evenodd" clip-rule="evenodd" d="M8.40892 14.9219H10.748C11.1196 14.9219 11.4147 15.2287 11.4147 15.6012V17.1789C11.4147 17.5514 11.1087 17.8472 10.748 17.8472H8.40892C8.0373 17.8472 7.74219 17.5405 7.74219 17.1789V15.6012C7.74219 15.2287 8.0373 14.9219 8.40892 14.9219Z" fill="#0081C3"/>
<path fill-rule="evenodd" clip-rule="evenodd" d="M8.4089 14.9807C8.07086 14.9807 7.80073 15.2599 7.80073 15.6013V17.179C7.80073 17.5088 8.07024 17.7886 8.4089 17.7886H10.7479C11.0769 17.7886 11.3561 17.5185 11.3561 17.179V15.6013C11.3561 15.2599 11.086 14.9807 10.7479 14.9807H8.4089ZM7.68359 15.6013C7.68359 15.1976 8.0037 14.8633 8.4089 14.8633H10.7479C11.1531 14.8633 11.4732 15.1976 11.4732 15.6013V17.179C11.4732 17.5846 11.1404 17.9061 10.7479 17.9061H8.4089C8.00431 17.9061 7.68359 17.5724 7.68359 17.179V15.6013Z" fill="black"/>
<path fill-rule="evenodd" clip-rule="evenodd" d="M8.16797 15.8048C8.16797 15.5199 8.3975 15.3008 8.67075 15.3008H10.5289C10.8131 15.3008 11.0317 15.5309 11.0317 15.8048V16.9552C11.0317 17.2401 10.8021 17.4592 10.5289 17.4592H8.67075C8.38657 17.4592 8.16797 17.2291 8.16797 16.9552V15.8048Z" fill="black"/>
<path fill-rule="evenodd" clip-rule="evenodd" d="M11.0422 16.6703C10.2005 16.5827 9.91635 15.6076 9.83984 15.3008H10.5394C10.8236 15.3008 11.0422 15.5309 11.0422 15.8048V16.6703Z" fill="#FFE01B"/>
<path fill-rule="evenodd" clip-rule="evenodd" d="M9.38121 15.3008C9.32656 15.5856 9.06424 16.6375 8.16797 16.6813V15.8157C8.16797 15.5309 8.3975 15.3117 8.67075 15.3117H9.38121V15.3008Z" fill="#FFE01B"/>
<path fill-rule="evenodd" clip-rule="evenodd" d="M18.955 14.9219H21.294C21.6657 14.9219 21.9608 15.2287 21.9608 15.6012V17.1789C21.9608 17.5514 21.6547 17.8472 21.294 17.8472H18.955C18.5834 17.8472 18.2773 17.5405 18.2773 17.1789V15.6012C18.2883 15.2287 18.5834 14.9219 18.955 14.9219Z" fill="#0081C3"/>
<path fill-rule="evenodd" clip-rule="evenodd" d="M18.3359 15.6022V17.179C18.3359 17.5075 18.6151 17.7886 18.955 17.7886H21.294C21.623 17.7886 21.9022 17.5185 21.9022 17.179V15.6013C21.9022 15.2599 21.6321 14.9807 21.294 14.9807H18.955C18.6175 14.9807 18.3464 15.2595 18.3359 15.6022ZM18.2188 15.5996C18.2306 15.1975 18.5495 14.8633 18.955 14.8633H21.294C21.6992 14.8633 22.0193 15.1976 22.0193 15.6013V17.179C22.0193 17.5846 21.6864 17.9061 21.294 17.9061H18.955C18.5516 17.9061 18.2188 17.5736 18.2188 17.179V15.6004L18.2188 15.5996Z" fill="black"/>
<path fill-rule="evenodd" clip-rule="evenodd" d="M18.7246 15.8048C18.7246 15.5199 18.9541 15.3008 19.2274 15.3008H21.0855C21.3697 15.3008 21.5883 15.5309 21.5883 15.8048V16.9552C21.5883 17.2401 21.3588 17.4592 21.0855 17.4592H19.2274C18.9432 17.4592 18.7246 17.2291 18.7246 16.9552V15.8048Z" fill="black"/>
<path fill-rule="evenodd" clip-rule="evenodd" d="M21.5871 16.6703C20.7455 16.5827 20.4613 15.6076 20.3848 15.3008H21.0843C21.3685 15.3008 21.5871 15.5309 21.5871 15.8048V16.6703Z" fill="#FFE01B"/>
<path fill-rule="evenodd" clip-rule="evenodd" d="M19.9281 15.3008C19.8734 15.5856 19.6111 16.6375 18.7148 16.6813V15.8157C18.7148 15.5309 18.9444 15.3117 19.2176 15.3117H19.9281V15.3008Z" fill="#FFE01B"/>
<path fill-rule="evenodd" clip-rule="evenodd" d="M19.7002 7.04872C19.4488 6.20508 19.4051 5.77778 20.1811 5.77778H21.8862C22.9136 5.75587 22.4874 6.56664 22.389 7.34454C22.2578 8.3854 22.2578 8.69218 22.2578 8.69218C22.2578 8.69218 19.7111 7.07063 19.7002 7.04872Z" fill="#ED1C27"/>
<path fill-rule="evenodd" clip-rule="evenodd" d="M14.845 13.0739C12.3201 13.0739 8.84434 13.293 6.6146 13.4683C4.89857 13.5998 3.57603 12.296 4.72369 11.0579C7.15017 8.4284 13.0743 5.09766 14.8668 5.09766C16.7687 5.09766 22.5835 8.41745 25.0099 11.0579C26.1467 12.296 24.999 13.4683 23.283 13.4683C21.3593 13.4574 17.3698 13.0739 14.845 13.0739Z" fill="#F8991D"/>
<path fill-rule="evenodd" clip-rule="evenodd" d="M16.2129 18.9686C16.2129 18.7823 16.355 18.6289 16.5408 18.6289C16.7266 18.6289 16.8687 18.7823 16.8687 18.9686C16.8687 19.1548 16.7266 19.3082 16.5408 19.3082C16.3659 19.3082 16.2129 19.1548 16.2129 18.9686Z" fill="black"/>
<path fill-rule="evenodd" clip-rule="evenodd" d="M14.8578 21.325C13.8522 21.325 13.0434 21.4784 13.0434 21.4784C11.8411 17.9724 12.945 14.6745 14.8578 14.6745C16.7815 14.6745 17.8745 17.9833 16.6722 21.4784C16.6831 21.4784 15.9071 21.325 14.8578 21.325ZM16.6394 21.5989C17.6341 21.7633 18.2899 22.0482 18.2899 22.3769C18.2899 22.8808 16.7487 23.2972 14.8578 23.2972C12.9669 23.2972 11.4258 22.8808 11.4258 22.3769C11.4258 22.0482 12.0816 21.7523 13.0871 21.5989C13.0871 21.5989 14.1692 21.4675 14.8687 21.4675C15.5573 21.4675 16.6394 21.5989 16.6394 21.5989ZM16.7815 21.5003C18.0385 17.8628 16.8143 14.5211 14.8578 14.5321C12.9013 14.5211 11.6772 17.8628 12.9341 21.5003C11.9613 21.6866 11.3165 22.0153 11.3165 22.3878C11.3165 22.5083 11.382 22.6179 11.5023 22.7275C9.87369 22.0043 9.72067 20.832 10.606 20.5143C11.382 20.2404 12.322 19.8678 12.322 19.8678C11.8192 17.4246 12.5953 14.1376 14.8469 14.1376C17.0985 14.1376 17.8636 17.4246 17.3717 19.8678C17.3717 19.8678 18.3117 20.2513 19.0878 20.5143C19.9622 20.8101 19.831 21.9824 18.2134 22.7165C18.3227 22.6179 18.3882 22.4974 18.3882 22.3878C18.3992 22.0153 17.7543 21.6866 16.7815 21.5003ZM19.831 7.00502C19.6343 6.23807 19.6343 5.92034 20.2901 5.92034H21.7438C22.7056 5.89842 22.3121 6.65442 22.2247 7.39945C22.17 7.84866 22.1373 8.21023 22.1263 8.49509C21.3503 7.94727 20.5743 7.44328 19.831 7.00502ZM18.1368 22.9028C22.7821 23.6916 25.0556 19.7802 23.5691 17.4246C22.4214 15.7154 22.1482 14.2801 22.1045 13.546C19.055 13.3816 16.9564 13.2392 14.8578 13.2063C12.7592 13.2392 10.6607 13.3816 7.61116 13.546C7.56744 14.2801 7.29419 15.7154 6.14653 17.4246C4.64911 19.7911 6.9335 23.7026 11.5788 22.9028C9.60044 22.1577 9.35998 20.8758 10.4202 20.4704C11.1853 20.1746 12.2237 19.7911 12.2237 19.7911C11.7099 17.2712 12.5953 13.9404 14.8578 13.9514C17.1203 13.9514 18.0057 17.2712 17.492 19.7911C17.492 19.7911 18.5194 20.1637 19.2954 20.4704C20.3447 20.8758 20.1043 22.1577 18.1368 22.9028ZM14.8578 12.8886C12.2455 12.9215 9.75346 13.1077 6.83512 13.294C5.02073 13.4145 4.00423 12.1984 5.14096 10.9384C6.82419 9.08674 12.5734 5.28487 14.8578 5.28487C17.1313 5.28487 22.8914 9.08674 24.5747 10.9384C25.7223 12.1874 24.6949 13.4036 22.8805 13.294C19.9622 13.1077 17.481 12.9215 14.8578 12.8886ZM19.4922 6.80781C19.4703 6.73111 19.4485 6.65442 19.4266 6.57772C19.3064 6.12851 19.4157 5.62451 20.1917 5.62451H21.8859C22.8805 5.62451 22.7712 6.31477 22.6073 6.98311C22.487 7.46519 22.3886 8.06779 22.3449 8.63753C22.3449 8.63753 23.733 9.65647 24.4982 10.3139C26.9246 12.3627 25.3398 13.7103 23.0335 13.5898C22.804 13.5789 22.5745 13.5679 22.3449 13.557C22.3559 14.2362 22.5635 15.4962 23.6237 16.9315C26.3125 20.1527 22.7493 24.1956 17.7324 23.0562C16.9017 23.3301 15.5901 23.4615 14.8578 23.4615C14.1255 23.4615 12.8139 23.3301 11.9832 23.0562C6.95536 24.1956 3.40307 20.1527 6.09188 16.9315C7.1521 15.4962 7.35977 14.2472 7.3707 13.557L6.6821 13.5898C4.36492 13.7103 2.79099 12.3627 5.21747 10.3139C8.8244 7.26798 13.1746 5.01096 14.8578 5C15.7759 5 17.5138 5.69025 19.4922 6.80781Z" fill="black"/>
</svg>
