<svg width="26" height="25" viewBox="0 0 26 25" fill="none" xmlns="http://www.w3.org/2000/svg">
<circle cx="6.03203" cy="5.2" r="5.2" fill="#F9F9F9"/>
<g clip-path="url(#clip0_4764_50344)">
<path d="M13.3891 24.8983C20.2369 24.8983 25.7881 19.3474 25.7881 12.4999C25.7881 5.65251 20.2369 0.101562 13.3891 0.101562C6.54142 0.101562 0.990234 5.65251 0.990234 12.4999C0.990234 19.3474 6.54142 24.8983 13.3891 24.8983Z" fill="url(#paint0_radial_4764_50344)"/>
<path d="M16.7334 9.44985H13.7982C13.785 9.44985 13.7718 9.44799 13.7589 9.45065C13.2919 9.55194 12.4117 10.0294 12.4162 11.072C12.392 11.4732 12.5677 12.1118 13.4066 12.378C13.4091 12.378 15.4989 12.378 15.4989 12.378C15.5915 12.378 16.1629 12.5087 16.125 13.5053C16.0867 14.5101 15.23 14.6406 15.1068 14.7737H11.8648C11.7626 14.7737 11.6797 14.8712 11.6797 14.9734C11.6797 15.0756 11.7626 15.173 11.8648 15.173H15.1246C15.1352 15.173 15.1455 15.1243 15.1559 15.1224C15.601 15.0463 16.4535 14.5898 16.4951 13.4977C16.5489 12.0854 15.5271 11.9963 15.5167 11.9956C15.5182 11.9952 13.4516 11.9896 13.4516 11.9896C12.7461 11.8605 12.7841 11.1114 12.7863 11.0788C12.7865 11.0743 12.7867 11.086 12.7867 11.0815C12.7791 10.1356 13.678 9.84914 13.82 9.84914H16.7335C16.8357 9.84914 16.9187 9.75172 16.9187 9.6495C16.9185 9.54728 16.8356 9.44985 16.7334 9.44985Z" fill="white"/>
<path d="M21.2031 9.42882C21.1862 9.42403 21.1687 9.44971 21.1511 9.44971H18.9579C17.9651 9.44971 17.5167 10.5993 17.4982 10.6495C17.4952 10.6576 17.4929 10.6516 17.4909 10.6601C17.4682 10.763 16.9336 13.1806 16.9516 13.9787C16.9688 14.7297 17.7336 15.0027 18.1355 15.0456C18.1422 15.0464 18.1488 15.0399 18.1556 15.0399H21.2046C21.3081 15.0399 21.3923 14.9438 21.3923 14.8403C21.3923 14.7367 21.3083 14.6406 21.2046 14.6406H18.1671C18.0716 14.6406 17.3403 14.5291 17.3271 13.9479C17.32 13.6359 17.4088 13.0388 17.5158 12.4356L21.7591 12.4039C21.8496 12.4033 21.9268 12.3398 21.9424 12.2505C21.9506 12.2039 22.1412 11.1188 22.1412 10.468C22.1411 9.69381 21.2415 9.44 21.2031 9.42882ZM21.598 12.0337L17.5846 12.0672C17.7079 11.4133 17.8332 10.8773 17.8544 10.7811C17.8973 10.6739 18.2654 9.84887 18.9579 9.84887H21.1214C21.2385 9.84887 21.7659 10.056 21.7659 10.4948C21.7659 10.9746 21.6506 11.7068 21.598 12.0337Z" fill="white"/>
<path d="M11.8584 10.5736C11.9684 9.82464 11.0225 9.44971 10.8455 9.44971C10.8452 9.44971 10.845 9.44971 10.845 9.44971C10.0811 9.44971 8.92398 9.47593 8.80326 9.4718C8.78716 9.47007 8.77052 9.48072 8.75375 9.48325C8.28073 9.55858 7.6384 10.1678 7.4321 10.7313L7.43529 10.7352C7.41466 10.798 7.39656 10.8949 7.36901 11.0405C7.3356 11.2166 7.28889 11.4688 7.23312 11.7705C7.12185 12.3734 6.97504 13.1778 6.82864 13.9817C6.53582 15.5893 6.24514 17.197 6.24514 17.197C6.22717 17.2962 6.29306 17.3912 6.39221 17.4092C6.40313 17.4112 6.41404 17.4122 6.42482 17.4122C6.51133 17.4122 6.58826 17.3505 6.6041 17.2621C6.72708 16.5825 6.92873 15.4695 7.13077 14.3599C7.60712 14.9609 8.19967 15.0239 8.22935 15.0267C8.23667 15.0275 8.24399 15.0281 8.25158 15.0274L10.127 14.9738C10.1432 14.9734 10.1589 14.9708 10.1742 14.9662C11.0639 14.6993 11.3314 13.7812 11.3425 13.7422C11.3442 13.7357 11.3458 13.729 11.3469 13.7223L11.856 10.6039C11.8573 10.5973 11.8574 10.5802 11.8584 10.5736ZM11.4942 10.5665L10.9888 13.6512C10.9625 13.7338 10.7301 14.4044 10.0919 14.6096L8.25517 14.6621C8.17052 14.6502 7.59741 14.5448 7.22607 13.8375C7.49652 12.3531 7.74488 11.0002 7.77695 10.8565C7.94718 10.3992 8.49781 9.90783 8.80672 9.85499C8.87673 9.85925 8.97243 9.85938 9.10486 9.85965C9.29825 9.85991 9.55659 9.85978 9.81467 9.85925C10.2423 9.85858 10.6697 9.85712 10.8034 9.85658C11.0201 9.85499 11.5469 10.2227 11.4942 10.5665Z" fill="white"/>
<path d="M3.40886 9.344C3.69723 9.344 3.931 9.09462 3.931 8.78699C3.931 8.47936 3.69723 8.22998 3.40886 8.22998C3.12049 8.22998 2.88672 8.47936 2.88672 8.78699C2.88672 9.09462 3.12049 9.344 3.40886 9.344Z" fill="#FDB718"/>
<path d="M2.88259 7.02849C2.88259 6.78372 2.73366 6.57809 2.52789 6.50342C2.35406 6.81793 2.19341 7.14082 2.04688 7.4713C2.13445 7.54197 2.24226 7.5855 2.36045 7.5855C2.64887 7.5855 2.88259 7.33607 2.88259 7.02849Z" fill="#FDB718"/>
<path d="M1.82727 8.78655C1.82727 8.63548 1.77044 8.49879 1.67887 8.39844C1.57159 8.70509 1.4759 9.01707 1.39258 9.33411C1.63907 9.28952 1.82727 9.06219 1.82727 8.78655Z" fill="#FDB718"/>
<path d="M3.48308 16.1301C3.77145 16.1301 4.00522 15.8808 4.00522 15.5731C4.00522 15.2655 3.77145 15.0161 3.48308 15.0161C3.19471 15.0161 2.96094 15.2655 2.96094 15.5731C2.96094 15.8808 3.19471 16.1301 3.48308 16.1301Z" fill="#FDB718"/>
<path d="M1.63892 15.5728C1.63892 15.3405 1.47721 15.1503 1.26758 15.1187C1.32694 15.3938 1.39495 15.6657 1.47228 15.9337C1.57304 15.8494 1.63892 15.7198 1.63892 15.5728Z" fill="#FDB718"/>
<path d="M2.87993 17.389C2.87993 17.0815 2.64622 16.832 2.3578 16.832C2.15189 16.832 1.97567 16.9602 1.89062 17.1448C1.9987 17.4115 2.11556 17.6737 2.24134 17.9309C2.27887 17.9401 2.3176 17.9459 2.3578 17.9459C2.64608 17.9461 2.87993 17.6966 2.87993 17.389Z" fill="#FDB718"/>
<path d="M3.76637 13.8419H2.7193C2.65142 13.7088 2.45696 13.4797 2.22484 13.4797C1.93642 13.4797 1.7027 13.7411 1.7027 14.0487C1.7027 14.3563 1.93642 14.6165 2.22484 14.6165C2.45696 14.6165 2.65142 14.5072 2.7193 14.241H3.57644H3.87152H3.89654L4.99472 12.2446H6.68838V11.9784H3.91198L2.77067 9.98193H2.69108H2.39734H1.24152C1.21437 10.1142 1.18988 10.2475 1.16685 10.3812H2.6047L3.53878 11.9784H0.998486C0.994893 12.0669 0.991965 12.1555 0.990234 12.2446H4.67462L3.76637 13.8419Z" fill="#FDB718"/>
<path d="M8.05121 7.78613H8.61102C8.61102 7.78613 8.77513 7.83445 8.74611 8.02744L8.6399 8.77065H8.05108C8.05108 8.77065 7.79047 8.67416 7.92557 8.39425C7.92557 8.39425 8.04868 8.24465 8.15729 8.24465L8.6966 8.26275" stroke="white" stroke-width="0.0553683" stroke-miterlimit="10"/>
<path d="M9.75106 7.78613H9.19113C9.19113 7.78613 8.99814 7.88263 8.94982 8.13365C8.94982 8.13365 8.81952 8.50046 8.97391 8.77065L9.03913 8.78516H9.56513" stroke="white" stroke-width="0.0553683" stroke-miterlimit="10"/>
<path d="M10.0735 7.33447L9.99223 7.7858L9.81055 8.79441" stroke="white" stroke-width="0.0553683" stroke-miterlimit="10"/>
<path d="M9.95898 7.97354C9.95898 7.97354 10.0259 7.84111 10.1417 7.78561C10.1417 7.78561 10.564 7.74462 10.6388 7.85083C10.6388 7.85083 10.7234 7.89182 10.7184 8.01254L10.5881 8.77026" stroke="white" stroke-width="0.0553683" stroke-miterlimit="10"/>
</g>
<defs>
<radialGradient id="paint0_radial_4764_50344" cx="0" cy="0" r="1" gradientUnits="userSpaceOnUse" gradientTransform="translate(13.6109 12.4555) scale(12.3987)">
<stop offset="0.3155" stop-color="#2D5CA8"/>
<stop offset="0.5312" stop-color="#285496"/>
<stop offset="0.7289" stop-color="#1F4272"/>
<stop offset="1" stop-color="#0D2D4D"/>
</radialGradient>
<clipPath id="clip0_4764_50344">
<rect width="25.0555" height="25" fill="white" transform="translate(0.832031)"/>
</clipPath>
</defs>
</svg>
